<svg xmlns="http://www.w3.org/2000/svg" width="15.253" height="17.464" viewBox="0 0 15.253 17.464"><defs><style>.a{fill:#fff;}</style></defs><g transform="translate(-11.794 393.792)"><path class="a" d="M87.769-393.77a4.359,4.359,0,0,0-3.255,1.907,4.409,4.409,0,0,0-.715,2.431,4.311,4.311,0,0,0,1.5,3.318,4.4,4.4,0,0,0,4.037.869,4.3,4.3,0,0,0,3.077-3.3,6.817,6.817,0,0,0,0-1.775,4.4,4.4,0,0,0-1.183-2.208,4.251,4.251,0,0,0-2.645-1.229A2.938,2.938,0,0,0,87.769-393.77Zm.919,1.671a2.742,2.742,0,0,1,1.843,1.325,3.012,3.012,0,0,1,.264,2,2.69,2.69,0,0,1-2.107,2.007,2.506,2.506,0,0,1-1.088,0,2.65,2.65,0,0,1-2.167-2.663,2.65,2.65,0,0,1,1.443-2.417A2.759,2.759,0,0,1,88.689-392.1Z" transform="translate(-68.728)"/><path class="a" d="M17.379-165.558c-.1.009-.373.05-.605.086a6,6,0,0,0-4.9,4.934c-.187,1.161-.068,1.63.487,1.925l.191.1,6.668.014c3.669.009,6.778,0,6.905-.014a1.032,1.032,0,0,0,.8-.569c.127-.241.132-.264.1-.751a5.817,5.817,0,0,0-1.8-4.019,5.754,5.754,0,0,0-2.308-1.416c-.856-.273-.979-.287-3.268-.3C18.5-165.567,17.48-165.567,17.379-165.558Zm4.347,1.68a4.3,4.3,0,0,1,3.478,2.945,4.281,4.281,0,0,1,.141.569l.032.241H19.409c-3.282,0-5.967-.009-5.967-.018a7.213,7.213,0,0,1,.255-.96,4.388,4.388,0,0,1,2.321-2.476c.765-.323,1.092-.36,3.364-.364A18.727,18.727,0,0,1,21.726-163.879Z" transform="translate(0 -217.838)"/></g></svg>