<svg xmlns="http://www.w3.org/2000/svg" width="19.046" height="17.02" viewBox="0 0 19.046 17.02"><defs><style>.a{fill:#fff;}</style></defs><g transform="translate(-43.779 386.026)"><path class="a" d="M44.3-385.958a.779.779,0,0,0-.492.519.79.79,0,0,0,.421.927,4.309,4.309,0,0,0,1.087.084l.976.022,1,5.311c.79,4.166,1.025,5.346,1.1,5.466a1.032,1.032,0,0,0,.262.257l.164.1h5.7c5.67,0,5.7,0,5.856-.093a.794.794,0,0,0,0-1.367c-.155-.093-.2-.093-5.4-.106-2.888,0-5.249-.027-5.253-.044s-.067-.377-.146-.794l-.142-.768,5.413-.009,5.417-.013.209-.1a1.071,1.071,0,0,0,.5-.555c.035-.075.466-1.579.958-3.336.936-3.332.967-3.469.83-3.8a1.355,1.355,0,0,0-.537-.581l-.182-.1-7.13-.013-7.125-.009-.031-.191c-.013-.1-.035-.244-.049-.311a.9.9,0,0,0-.528-.515A17.792,17.792,0,0,0,44.3-385.958Zm16.78,2.649c-.013.031-.35,1.229-.75,2.662l-.728,2.609-5.235-.013-5.231-.009-.058-.288c-.186-.905-.945-4.88-.945-4.942s.55-.071,6.482-.071C59.788-383.362,61.1-383.349,61.083-383.309Z" transform="translate(0 0)"/><path class="a" d="M140.957-73.8a1.515,1.515,0,0,0-1.043.794,1.542,1.542,0,0,0,0,1.482,1.571,1.571,0,0,0,1.628.816,1.558,1.558,0,0,0,1.185-.892,1.174,1.174,0,0,0,.138-.665,1.175,1.175,0,0,0-.138-.666,1.556,1.556,0,0,0-1.167-.887A1,1,0,0,0,140.957-73.8Z" transform="translate(-91.689 -298.32)"/><path class="a" d="M356.957-73.8a1.515,1.515,0,0,0-1.043.794,1.542,1.542,0,0,0,0,1.482,1.571,1.571,0,0,0,1.628.816,1.558,1.558,0,0,0,1.185-.892,1.174,1.174,0,0,0,.138-.665,1.175,1.175,0,0,0-.138-.666,1.557,1.557,0,0,0-1.167-.887A1,1,0,0,0,356.957-73.8Z" transform="translate(-298.106 -298.32)"/></g></svg>