<svg xmlns="http://www.w3.org/2000/svg" width="22.084" height="19.324" viewBox="0 0 22.084 19.324"><defs><style>.a{fill:#f15162;}</style></defs><path class="a" d="M11.042,32C4.943,32,0,36.016,0,40.972a7.963,7.963,0,0,0,2.459,5.637A10.973,10.973,0,0,1,.095,50.741a.343.343,0,0,0-.065.375.338.338,0,0,0,.315.207A9.864,9.864,0,0,0,6.41,49.107a13.155,13.155,0,0,0,4.632.837c6.1,0,11.042-4.016,11.042-8.972S17.141,32,11.042,32ZM5.521,42.352a1.38,1.38,0,1,1,1.38-1.38A1.379,1.379,0,0,1,5.521,42.352Zm5.521,0a1.38,1.38,0,1,1,1.38-1.38A1.379,1.379,0,0,1,11.042,42.352Zm5.521,0a1.38,1.38,0,1,1,1.38-1.38A1.379,1.379,0,0,1,16.563,42.352Z" transform="translate(0 -32)"/></svg>