<svg xmlns="http://www.w3.org/2000/svg" width="20" height="17.806" viewBox="0 0 20 17.806"><defs><style>.a{fill:#fff;}</style></defs><g transform="translate(-27.966 391.578)"><path class="a" d="M37.744-391.551c-.176.056.032-.116-3.974,3.273-1.9,1.606-3.932,3.319-4.512,3.807a13.052,13.052,0,0,0-1.174,1.068.883.883,0,0,0,.279,1.165c.334.218.729.093,1.369-.436l.395-.325.023,3.417c.028,3.389.028,3.426.135,3.769a2.666,2.666,0,0,0,1.555,1.806c.534.232.641.237,6.09.237,3.366,0,5.195-.019,5.431-.051a2.685,2.685,0,0,0,2.312-2.117,27.776,27.776,0,0,0,.074-3.7c0-1.857.009-3.37.023-3.37a5.531,5.531,0,0,1,.46.348c.659.529.928.622,1.281.441a.856.856,0,0,0,.376-1.1,22.308,22.308,0,0,0-2.381-2.131c-4.995-4.243-6.87-5.826-7.056-5.956A.867.867,0,0,0,37.744-391.551Zm3.584,4.73,2.748,2.344v4.094c0,3.913,0,4.1-.088,4.3a1.3,1.3,0,0,1-.241.348c-.274.255-.45.292-1.509.292H41.3l-.014-2.846c-.014-2.688-.019-2.85-.1-3a1.592,1.592,0,0,0-.673-.682l-.26-.13h-4.6l-.237.125a1.766,1.766,0,0,0-.641.627c-.149.292-.167.673-.167,3.3v2.618l-.984-.014c-.924-.014-1-.023-1.207-.121a1.02,1.02,0,0,1-.534-.678c-.046-.186-.06-1.086-.056-4.229v-3.992l3.068-2.609,3.068-2.613.306.269C38.44-389.281,39.814-388.106,41.328-386.821Zm-1.708,8.871v2.507H36.277v-5.013H39.62Z" transform="translate(0 0)"/></g></svg>