<svg xmlns="http://www.w3.org/2000/svg" width="13.392" height="17.843" viewBox="0 0 13.392 17.843"><defs><style>.a{fill:#fff;}</style></defs><g transform="translate(-29.5 409.619)"><path class="a" d="M31.386-409.591a2.291,2.291,0,0,0-1.8,1.621c-.079.247-.084.7-.084,7.275,0,6.7,0,7.023.088,7.284a2.283,2.283,0,0,0,1.467,1.528l.307.107h4.844c4.8,0,4.848,0,5.128-.1a2.311,2.311,0,0,0,1.509-1.691c.065-.345.065-13.92,0-14.256a2.318,2.318,0,0,0-1.537-1.7c-.242-.084-.536-.089-4.983-.093C33.724-409.623,31.5-409.609,31.386-409.591Zm9.547,1.714a.534.534,0,0,1,.219.2c.047.093.061,1.588.061,6.986,0,6.725,0,6.874-.093,7.018a.433.433,0,0,1-.265.2c-.126.037-1.528.047-4.774.037l-4.6-.014-.149-.154-.154-.149v-13.869l.116-.126a.733.733,0,0,1,.21-.163c.051-.023,2.156-.042,4.681-.042C40.463-407.961,40.78-407.956,40.933-407.877Z" transform="translate(0 0)"/><path class="a" d="M102.17-313.714a.834.834,0,0,0-.517.55.606.606,0,0,0,0,.452.836.836,0,0,0,.577.564c.126.033,1.039.047,2.832.037,2.566-.014,2.645-.019,2.8-.112a.834.834,0,0,0,0-1.434c-.158-.093-.233-.1-2.841-.107A20.044,20.044,0,0,0,102.17-313.714Z" transform="translate(-68.754 -91.387)"/><path class="a" d="M102.17-241.714a.834.834,0,0,0-.517.55.606.606,0,0,0,0,.452.836.836,0,0,0,.577.564c.126.033,1.039.047,2.832.037,2.566-.014,2.645-.019,2.8-.112a.834.834,0,0,0,0-1.434c-.158-.093-.233-.1-2.841-.107A20.038,20.038,0,0,0,102.17-241.714Z" transform="translate(-68.754 -160.034)"/><path class="a" d="M102.337-169.714a.844.844,0,0,0-.517.55.813.813,0,0,0,.591,1.015,6.35,6.35,0,0,0,1.15.037c.866-.014.973-.023,1.122-.112a.834.834,0,0,0,0-1.434c-.149-.088-.251-.1-1.164-.107A4.492,4.492,0,0,0,102.337-169.714Z" transform="translate(-68.921 -228.68)"/></g></svg>